<svg version="1.2" xmlns="http://www.w3.org/2000/svg" viewBox="0 0 800 800" width="800" height="800"><style>.a{fill:#fff}</style><path class="a" d="m677.2 145.7q-19.4-9-39.4-16.6-19.9-7.6-40.3-14-20.5-6.3-41.2-11.3-20.8-5-41.9-8.6-0.4-0.1-0.8-0.1-0.4 0.1-0.7 0.3-0.4 0.1-0.7 0.4-0.2 0.3-0.4 0.6c-7 12.5-14.8 28.8-20.3 41.7q-22.7-3.5-45.6-5.2-22.9-1.7-45.8-1.7-23 0-45.9 1.7-22.9 1.7-45.6 5.2-2.3-5.4-4.7-10.7-2.4-5.2-5-10.5-2.6-5.2-5.3-10.3-2.7-5.1-5.6-10.2-0.2-0.3-0.5-0.6-0.2-0.3-0.6-0.4-0.3-0.2-0.7-0.2-0.4-0.1-0.8 0-21.1 3.6-41.9 8.6-20.7 5-41.2 11.3-20.4 6.4-40.3 14-20 7.6-39.4 16.6-0.2 0-0.3 0.1-0.2 0.1-0.3 0.2-0.2 0.1-0.3 0.3-0.1 0.1-0.2 0.3c-103.7 154.9-132.2 306.1-118.2 455.3q0 0.3 0.1 0.5 0.1 0.3 0.2 0.6 0.2 0.2 0.3 0.4 0.2 0.2 0.4 0.4 22.6 16.7 46.6 31.5 23.9 14.8 49 27.5 25.1 12.7 51.2 23.2 26.1 10.5 53 18.8 0.4 0.1 0.8 0.1 0.4 0 0.7-0.1 0.4-0.2 0.7-0.4 0.4-0.2 0.6-0.5 5.8-7.9 11.2-16 5.5-8.1 10.6-16.4 5.1-8.3 9.9-16.9 4.8-8.5 9.2-17.2 0.2-0.5 0.2-1 0.1-0.6-0.1-1.1-0.2-0.5-0.6-0.9-0.4-0.3-0.9-0.5-8.1-3.1-16-6.5-8-3.4-15.8-7.2-7.8-3.7-15.5-7.7-7.6-4-15.1-8.4-0.6-0.3-0.9-0.8-0.3-0.6-0.4-1.2 0-0.7 0.3-1.3 0.2-0.5 0.7-0.9 1.6-1.2 3.2-2.4 1.5-1.2 3.1-2.4 1.5-1.2 3.1-2.5 1.5-1.2 3-2.5 0.3-0.2 0.6-0.3 0.3-0.2 0.7-0.2 0.3 0 0.6 0 0.4 0.1 0.7 0.2c130.9 59.8 272.7 59.8 402.1 0q0.3-0.1 0.6-0.2 0.4-0.1 0.7 0 0.4 0 0.7 0.2 0.3 0.1 0.6 0.3c4 3.3 8.2 6.6 12.4 9.8q0.5 0.4 0.8 0.9 0.2 0.6 0.2 1.2 0 0.7-0.3 1.2-0.4 0.6-0.9 0.9-7.5 4.4-15.1 8.4-7.7 4.1-15.5 7.8-7.8 3.7-15.8 7.1-7.9 3.4-16 6.4-0.5 0.2-0.9 0.6-0.4 0.4-0.6 0.9-0.2 0.5-0.2 1.1 0.1 0.5 0.3 1c12 23.3 25.7 45.4 40.8 66.4q0.3 0.4 0.6 0.6 0.3 0.2 0.7 0.3 0.4 0.2 0.8 0.2 0.4 0 0.7-0.1 27-8.3 53.1-18.8 26.1-10.5 51.3-23.2 25.1-12.7 49.1-27.5 24-14.8 46.6-31.5 0.2-0.2 0.4-0.4 0.2-0.2 0.3-0.4 0.2-0.3 0.2-0.5 0.1-0.3 0.2-0.5c16.6-172.6-28-322.5-118.3-455.4q-0.1-0.1-0.2-0.3-0.1-0.1-0.3-0.3-0.1-0.1-0.2-0.2-0.2-0.1-0.4-0.1zm-409.9 365.3c-39.4 0-71.9-36.2-71.9-80.6 0-44.5 31.9-80.7 71.9-80.7 40.4 0 72.6 36.6 71.9 80.7 0 44.4-31.8 80.6-71.9 80.6zm265.9 0c-39.5 0-71.9-36.2-71.9-80.6 0-44.5 31.8-80.7 71.9-80.7 40.3 0 72.5 36.6 71.9 80.7 0 44.4-31.6 80.6-71.9 80.6z"/></svg>